{
    "asset" : {
        "generator" : "Khronos glTF Blender I/O v0.9.36",
        "version" : "2.0"
    },
    "scene" : 0,
    "scenes" : [
        {
            "name" : "Scene",
            "nodes" : [
                0,
                1,
                2,
                3,
                4,
                5,
                6,
                7,
                8
            ]
        }
    ],
    "nodes" : [
        {
            "name" : "Light",
            "rotation" : [
                0.16907575726509094,
                0.7558803558349609,
                -0.27217137813568115,
                0.570947527885437
            ],
            "translation" : [
                4.076245307922363,
                5.903861999511719,
                -1.0054539442062378
            ]
        },
        {
            "name" : "Camera",
            "rotation" : [
                0.483536034822464,
                0.33687159419059753,
                -0.20870360732078552,
                0.7804827094078064
            ],
            "translation" : [
                7.358891487121582,
                4.958309173583984,
                6.925790786743164
            ]
        },
        {
            "mesh" : 0,
            "name" : "Object.160"
        },
        {
            "mesh" : 1,
            "name" : "Object.161"
        },
        {
            "mesh" : 2,
            "name" : "Object.162"
        },
        {
            "mesh" : 3,
            "name" : "Object.163"
        },
        {
            "mesh" : 4,
            "name" : "Object.013"
        },
        {
            "mesh" : 5,
            "name" : "Object.083"
        },
        {
            "mesh" : 6,
            "name" : "Object.109"
        }
    ],
    "materials" : [
        {
            "doubleSided" : true,
            "name" : "Material",
            "pbrMetallicRoughness" : {
                "baseColorTexture" : {
                    "index" : 0,
                    "texCoord" : 0
                },
                "metallicFactor" : 0,
                "roughnessFactor" : 0.4000000059604645
            }
        },
        {
            "doubleSided" : true,
            "name" : "Material.002",
            "pbrMetallicRoughness" : {
                "baseColorTexture" : {
                    "index" : 1,
                    "texCoord" : 0
                },
                "metallicFactor" : 0,
                "roughnessFactor" : 0.5
            }
        }
    ],
    "meshes" : [
        {
            "name" : "Brep 9a71e51d-0884-4b57-b3b5-e205ea54fe4b",
            "primitives" : [
                {
                    "attributes" : {
                        "POSITION" : 0,
                        "NORMAL" : 1
                    },
                    "indices" : 2
                }
            ]
        },
        {
            "name" : "Brep d89c7187-b8fb-482e-8b38-3609a2d84904",
            "primitives" : [
                {
                    "attributes" : {
                        "POSITION" : 3,
                        "NORMAL" : 4
                    },
                    "indices" : 5
                }
            ]
        },
        {
            "name" : "Brep 71420a82-15da-423e-a36d-47fc08d47016",
            "primitives" : [
                {
                    "attributes" : {
                        "POSITION" : 6,
                        "NORMAL" : 7
                    },
                    "indices" : 8
                }
            ]
        },
        {
            "name" : "Brep 4e5d59a8-5c04-4af2-9dbf-ec2c85ded620",
            "primitives" : [
                {
                    "attributes" : {
                        "POSITION" : 9,
                        "NORMAL" : 10
                    },
                    "indices" : 11
                }
            ]
        },
        {
            "name" : "Brep 43b57bde-aa87-4853-97d7-c7e314acc704",
            "primitives" : [
                {
                    "attributes" : {
                        "POSITION" : 12,
                        "NORMAL" : 13,
                        "TEXCOORD_0" : 14
                    },
                    "indices" : 15,
                    "material" : 0
                }
            ]
        },
        {
            "name" : "Brep 82491d99-edab-4f2d-bbe2-e6c0adcaaaa1",
            "primitives" : [
                {
                    "attributes" : {
                        "POSITION" : 16,
                        "NORMAL" : 17,
                        "TEXCOORD_0" : 18
                    },
                    "indices" : 19,
                    "material" : 1
                }
            ]
        },
        {
            "name" : "Brep 02de55e7-2bab-461b-9d78-bc5656e208e8",
            "primitives" : [
                {
                    "attributes" : {
                        "POSITION" : 20,
                        "NORMAL" : 21,
                        "TEXCOORD_0" : 22
                    },
                    "indices" : 23,
                    "material" : 0
                }
            ]
        }
    ],
    "textures" : [
        {
            "source" : 0
        },
        {
            "source" : 1
        }
    ],
    "images" : [
        {
            "bufferView" : 16,
            "mimeType" : "image/png",
            "name" : "front"
        },
        {
            "bufferView" : 21,
            "mimeType" : "image/png",
            "name" : "back"
        }
    ],
    "accessors" : [
        {
            "bufferView" : 0,
            "componentType" : 5126,
            "count" : 130,
            "max" : [
                -1.2911548614501953,
                0.3207888901233673,
                1.213415265083313
            ],
            "min" : [
                -1.9563333988189697,
                -1.059991717338562,
                0.6204129457473755
            ],
            "type" : "VEC3"
        },
        {
            "bufferView" : 1,
            "componentType" : 5126,
            "count" : 130,
            "type" : "VEC3"
        },
        {
            "bufferView" : 2,
            "componentType" : 5123,
            "count" : 384,
            "type" : "SCALAR"
        },
        {
            "bufferView" : 3,
            "componentType" : 5126,
            "count" : 130,
            "max" : [
                1.9101771116256714,
                0.3207888901233673,
                1.213415265083313
            ],
            "min" : [
                1.244998812675476,
                -1.059991717338562,
                0.6204129457473755
            ],
            "type" : "VEC3"
        },
        {
            "bufferView" : 4,
            "componentType" : 5126,
            "count" : 130,
            "type" : "VEC3"
        },
        {
            "bufferView" : 5,
            "componentType" : 5123,
            "count" : 384,
            "type" : "SCALAR"
        },
        {
            "bufferView" : 6,
            "componentType" : 5126,
            "count" : 130,
            "max" : [
                1.7908554077148438,
                0.3207888901233673,
                -1.1334651708602905
            ],
            "min" : [
                1.1667323112487793,
                -1.059991717338562,
                -1.726467490196228
            ],
            "type" : "VEC3"
        },
        {
            "bufferView" : 7,
            "componentType" : 5126,
            "count" : 130,
            "type" : "VEC3"
        },
        {
            "bufferView" : 8,
            "componentType" : 5123,
            "count" : 384,
            "type" : "SCALAR"
        },
        {
            "bufferView" : 9,
            "componentType" : 5126,
            "count" : 130,
            "max" : [
                -1.2128883600234985,
                0.3207888901233673,
                -1.1334651708602905
            ],
            "min" : [
                -1.8370115756988525,
                -1.059991717338562,
                -1.726467490196228
            ],
            "type" : "VEC3"
        },
        {
            "bufferView" : 10,
            "componentType" : 5126,
            "count" : 130,
            "type" : "VEC3"
        },
        {
            "bufferView" : 11,
            "componentType" : 5123,
            "count" : 384,
            "type" : "SCALAR"
        },
        {
            "bufferView" : 12,
            "componentType" : 5126,
            "count" : 6326,
            "max" : [
                1.3220294713974,
                1.1133960485458374,
                1.03179132938385
            ],
            "min" : [
                -1.3220294713974,
                0.6561960577964783,
                -1.2237286567687988
            ],
            "type" : "VEC3"
        },
        {
            "bufferView" : 13,
            "componentType" : 5126,
            "count" : 6326,
            "type" : "VEC3"
        },
        {
            "bufferView" : 14,
            "componentType" : 5126,
            "count" : 6326,
            "type" : "VEC2"
        },
        {
            "bufferView" : 15,
            "componentType" : 5123,
            "count" : 25608,
            "type" : "SCALAR"
        },
        {
            "bufferView" : 17,
            "componentType" : 5126,
            "count" : 6197,
            "max" : [
                1.9055215120315552,
                2.7367501258850098,
                1.1327030658721924
            ],
            "min" : [
                -1.9517488479614258,
                0.0499785952270031,
                -2.6936910152435303
            ],
            "type" : "VEC3"
        },
        {
            "bufferView" : 18,
            "componentType" : 5126,
            "count" : 6197,
            "type" : "VEC3"
        },
        {
            "bufferView" : 19,
            "componentType" : 5126,
            "count" : 6197,
            "type" : "VEC2"
        },
        {
            "bufferView" : 20,
            "componentType" : 5123,
            "count" : 28008,
            "type" : "SCALAR"
        },
        {
            "bufferView" : 22,
            "componentType" : 5126,
            "count" : 4964,
            "max" : [
                1.8439544439315796,
                2.834911584854126,
                1.1327030658721924
            ],
            "min" : [
                -1.890607476234436,
                0.25040945410728455,
                -2.6851861476898193
            ],
            "type" : "VEC3"
        },
        {
            "bufferView" : 23,
            "componentType" : 5126,
            "count" : 4964,
            "type" : "VEC3"
        },
        {
            "bufferView" : 24,
            "componentType" : 5126,
            "count" : 4964,
            "type" : "VEC2"
        },
        {
            "bufferView" : 25,
            "componentType" : 5123,
            "count" : 24150,
            "type" : "SCALAR"
        }
    ],
    "bufferViews" : [
        {
            "buffer" : 0,
            "byteLength" : 1560,
            "byteOffset" : 0
        },
        {
            "buffer" : 0,
            "byteLength" : 1560,
            "byteOffset" : 1560
        },
        {
            "buffer" : 0,
            "byteLength" : 768,
            "byteOffset" : 3120
        },
        {
            "buffer" : 0,
            "byteLength" : 1560,
            "byteOffset" : 3888
        },
        {
            "buffer" : 0,
            "byteLength" : 1560,
            "byteOffset" : 5448
        },
        {
            "buffer" : 0,
            "byteLength" : 768,
            "byteOffset" : 7008
        },
        {
            "buffer" : 0,
            "byteLength" : 1560,
            "byteOffset" : 7776
        },
        {
            "buffer" : 0,
            "byteLength" : 1560,
            "byteOffset" : 9336
        },
        {
            "buffer" : 0,
            "byteLength" : 768,
            "byteOffset" : 10896
        },
        {
            "buffer" : 0,
            "byteLength" : 1560,
            "byteOffset" : 11664
        },
        {
            "buffer" : 0,
            "byteLength" : 1560,
            "byteOffset" : 13224
        },
        {
            "buffer" : 0,
            "byteLength" : 768,
            "byteOffset" : 14784
        },
        {
            "buffer" : 0,
            "byteLength" : 75912,
            "byteOffset" : 15552
        },
        {
            "buffer" : 0,
            "byteLength" : 75912,
            "byteOffset" : 91464
        },
        {
            "buffer" : 0,
            "byteLength" : 50608,
            "byteOffset" : 167376
        },
        {
            "buffer" : 0,
            "byteLength" : 51216,
            "byteOffset" : 217984
        },
        {
            "buffer" : 0,
            "byteLength" : 589600,
            "byteOffset" : 269200
        },
        {
            "buffer" : 0,
            "byteLength" : 74364,
            "byteOffset" : 858800
        },
        {
            "buffer" : 0,
            "byteLength" : 74364,
            "byteOffset" : 933164
        },
        {
            "buffer" : 0,
            "byteLength" : 49576,
            "byteOffset" : 1007528
        },
        {
            "buffer" : 0,
            "byteLength" : 56016,
            "byteOffset" : 1057104
        },
        {
            "buffer" : 0,
            "byteLength" : 384264,
            "byteOffset" : 1113120
        },
        {
            "buffer" : 0,
            "byteLength" : 59568,
            "byteOffset" : 1497384
        },
        {
            "buffer" : 0,
            "byteLength" : 59568,
            "byteOffset" : 1556952
        },
        {
            "buffer" : 0,
            "byteLength" : 39712,
            "byteOffset" : 1616520
        },
        {
            "buffer" : 0,
            "byteLength" : 48300,
            "byteOffset" : 1656232
        }
    ],
    "buffers" : [
        {
            "byteLength" : 1704532,
            "uri" : "data:application/octet-stream;base64,"
        }
    ]
}
